<svg width="165" height="46" viewBox="0 0 165 46" fill="none" xmlns="http://www.w3.org/2000/svg">
<path d="M25.7335 13.6152C26.0557 13.5816 26.388 13.6157 26.701 13.6939C27.6281 13.9256 28.2567 14.4948 28.7343 15.2907C29.114 15.2504 29.4978 15.2739 29.8696 15.3602C30.6632 15.5569 31.3475 16.0512 31.7769 16.7378C31.9888 17.0761 32.1295 17.453 32.1906 17.846C32.2516 18.239 32.2317 18.6401 32.1321 19.0254C31.8668 20.0281 31.2302 20.5502 30.3631 21.0503C30.3872 21.6659 30.3781 22.2845 30.3795 22.9006C30.3802 23.2898 30.4057 23.6959 30.3675 24.0822C30.3511 24.2461 30.3191 24.3803 30.2339 24.522C30.1094 24.611 29.982 24.638 29.8306 24.6563C29.4339 24.7039 29.0029 24.6717 28.6029 24.6708L26.2438 24.6624C25.4048 24.7244 24.5162 24.6658 23.672 24.6664C23.1101 24.6669 22.4775 24.7327 21.9226 24.6702C21.7246 24.6479 21.6401 24.5175 21.5318 24.3719C21.4618 23.2669 21.5213 22.1251 21.5217 21.016C21.0596 20.7799 20.6665 20.4901 20.3445 20.0827C20.1043 19.7788 19.9277 19.4309 19.8249 19.0593C19.722 18.6876 19.695 18.2995 19.7453 17.9175C19.8658 17.1045 20.3063 16.371 20.9714 15.8757C21.6293 15.3897 22.408 15.1916 23.2187 15.3029C23.3316 15.1072 23.4442 14.9107 23.5843 14.7323C24.1245 14.0443 24.8771 13.7229 25.7335 13.6152ZM25.7787 14.9724C25.2523 15.0757 24.7988 15.2638 24.4812 15.7193C24.3034 15.9743 24.141 16.7069 23.9194 16.8188C23.626 16.8534 23.319 16.7185 23.0347 16.6567C22.464 16.5325 21.819 16.759 21.4653 17.2175C21.1744 17.5946 21.0375 18.1146 21.1154 18.5827C21.1859 19.0061 21.4448 19.3612 21.7992 19.6038C22.1859 19.8686 22.617 19.9212 22.8841 20.3369C22.9333 21.2999 22.8976 22.2797 22.8991 23.2448C24.0231 23.2361 25.1471 23.2337 26.2711 23.2376L29.0167 23.2321C29.0164 22.7429 28.9108 20.31 29.1394 20.0711C29.2468 19.9591 29.4925 19.8907 29.6377 19.8344C30.2918 19.5801 30.7704 19.1393 30.8301 18.4138C30.8698 17.9347 30.7133 17.504 30.3912 17.1468C30.0978 16.8216 29.7149 16.6491 29.2741 16.6232C28.8871 16.6005 28.0904 16.9657 27.8472 16.6938C27.7289 16.5614 27.6816 16.3341 27.6212 16.1677C27.3737 15.483 26.8561 15.0856 26.1281 14.9913C26.0113 14.9762 25.8962 14.97 25.7787 14.9724Z" fill="white"/>
<path d="M38.7019 9.37294C38.9454 9.3554 39.2377 9.35856 39.4299 9.53379C39.609 9.69693 39.6173 9.95871 39.5576 10.1767C39.4131 10.7047 38.9498 11.337 38.671 11.8173C38.2247 12.5856 37.8083 13.3751 37.3752 14.1516C37.1073 14.6325 36.7829 15.1243 36.5685 15.6268C36.5005 15.7866 36.4488 15.9544 36.4564 16.1296C36.463 16.2818 36.5169 16.3964 36.6341 16.4963C36.8 16.6376 37.0192 16.7479 37.2445 16.7182C37.3944 16.6985 37.5146 16.62 37.6074 16.5046C37.9251 16.1098 38.1133 15.56 38.3455 15.1133L39.946 12.0243C40.1353 11.655 40.302 11.2019 40.5677 10.8826C40.7082 10.7137 40.8389 10.6335 41.0631 10.6146C41.2404 10.5997 41.4129 10.6455 41.5498 10.7604C41.7117 10.8967 41.7874 11.1163 41.7554 11.3226C41.6939 11.7194 41.3405 12.2013 41.1519 12.5629L39.6989 15.4118C39.4397 15.9256 39.1358 16.4509 38.9268 16.9862C38.8784 17.1106 38.83 17.25 38.8482 17.3852C38.8693 17.5435 38.9869 17.6826 39.115 17.7724C39.2584 17.8728 39.4535 17.9394 39.6297 17.9007C39.8325 17.8561 39.9744 17.7098 40.088 17.5469C40.3464 17.177 40.5175 16.6912 40.7079 16.2818L41.9483 13.6528C42.182 13.1537 42.3949 12.5676 42.7065 12.1143C42.8186 11.9512 42.9391 11.821 43.1455 11.7895C43.3544 11.7576 43.5659 11.8452 43.7235 11.976C43.8549 12.0848 43.9528 12.2125 43.9587 12.3867C43.9739 12.8336 43.1535 14.3853 42.9304 14.8842L42.0513 16.8486C41.6196 17.8174 41.2513 18.7886 40.5237 19.5901C39.807 20.3794 38.9916 20.7143 38.0078 21.0663C37.8003 21.1406 37.4822 21.2138 37.306 21.3395C36.958 21.5882 36.7156 22.048 36.5114 22.4107C36.3549 22.6894 36.1547 22.9923 36.0564 23.2969C35.9119 23.7457 36.0076 25.1182 36.0076 25.6599L36.0062 32.6559L36.0098 34.7949C36.0106 35.2139 36.036 35.6519 35.9894 36.068C35.9723 36.2204 35.9119 36.3904 35.7987 36.4998C35.458 36.8306 34.2026 36.7136 33.7207 36.7111L30.4353 36.7068C30.6246 36.2046 30.8586 35.7111 31.1054 35.2336C31.5316 35.1895 31.9699 35.2085 32.3987 35.2081L34.5178 35.2092L34.5182 26.0666C34.2437 26.7167 33.8943 27.3525 33.5784 27.9847C33.0164 29.1042 32.4604 30.2267 31.9106 31.352C31.2468 32.721 30.5726 34.0849 29.8879 35.4438C29.6014 36.0116 29.347 36.6103 29.0216 37.157C28.8894 37.3787 28.73 37.5788 28.5091 37.7212C28.209 37.9128 27.8448 37.9811 27.4943 37.9117C27.3239 37.8766 27.1626 37.8071 27.0207 37.7078C26.8788 37.6084 26.7592 37.4812 26.6695 37.3342C26.4794 37.0286 26.431 36.686 26.5344 36.3424C26.7033 35.781 27.0589 35.2393 27.3396 34.725L28.6754 32.2804C30.2933 29.3183 31.9248 26.3575 33.4899 23.3682C33.859 22.6636 34.6944 21.3282 34.8953 20.6644C35.1144 19.942 34.6543 19.0771 34.5196 18.3665C34.3984 17.7274 34.4134 17.1121 34.5779 16.4818C34.647 16.2123 34.7447 15.9508 34.8694 15.7016C35.0831 15.2808 35.3408 14.8779 35.5789 14.4701L36.8128 12.34L37.8087 10.613C38.0052 10.2726 38.1919 9.9058 38.43 9.59229C38.5043 9.49444 38.5963 9.4345 38.7019 9.37294Z" fill="white"/>
<path d="M16.3035 8.09286C17.4458 8.03321 18.6135 8.08429 19.7589 8.08533L26.3234 8.08773L32.2794 8.08479C33.2454 8.08468 34.2493 8.02958 35.2121 8.09071C35.409 8.10319 35.6329 8.15804 35.7817 8.29381C35.9124 8.413 35.9685 8.62245 35.9936 8.78936C36.0445 9.12791 36.0143 9.49899 36.0136 9.84217L36.0052 11.7886C35.5284 12.5552 35.0064 13.3001 34.5056 14.052C34.5496 13.5475 34.5191 13.023 34.5191 12.5159L34.5187 9.66335C28.8077 9.6683 23.0894 9.72021 17.3789 9.65991C17.3212 11.9961 17.3741 14.3471 17.374 16.6846L17.3771 29.606L25.0746 29.6028L27.458 29.5985C27.8992 29.5977 28.3687 29.5669 28.8059 29.6221C28.6435 30.1249 28.3348 30.63 28.095 31.1035L20.1606 31.0866L17.7718 31.0855C17.2273 31.0866 16.6602 31.0608 16.121 31.1397C15.6569 31.2051 15.2196 31.394 14.8562 31.686C14.4119 32.0408 14.0885 32.5541 14.0421 33.1237C14.0013 33.6252 14.2003 34.1094 14.5262 34.4879C14.8322 34.843 15.3025 35.1116 15.7668 35.1992C16.4451 35.3272 17.4533 35.2365 18.1676 35.2386L23.0221 35.2429C23.9248 35.2436 24.8442 35.2056 25.744 35.2713C25.5842 35.7383 25.4382 36.2437 25.3472 36.728C24.5331 36.6559 23.6661 36.7147 22.8452 36.7147L17.9837 36.7136C17.1377 36.7158 16.1748 36.8126 15.3492 36.6358C14.7695 36.5117 14.2253 36.2104 13.7719 35.838C13.0408 35.2383 12.5807 34.3124 12.5061 33.3823C12.4643 32.8622 12.4945 32.3227 12.4968 31.8008L12.498 29.2678L12.4975 20.5082L12.4958 14.4342C12.4952 13.6529 12.4224 12.279 12.5288 11.5416C12.6284 10.8103 12.9423 10.1234 13.432 9.56521C14.1532 8.71863 15.1861 8.18902 16.3035 8.09286ZM15.8512 9.72691C15.047 10.0531 14.4568 10.4616 14.1143 11.2775C13.9962 11.559 13.9646 11.906 13.9544 12.2091C13.9041 13.6956 13.9505 15.2002 13.9515 16.689L13.9527 25.2824L13.9534 29.0922C13.9537 29.5238 13.8727 30.1123 13.9684 30.5238L14.0027 30.5356L14.056 30.5012C14.6621 30.0532 15.176 29.8082 15.9207 29.6527C15.8625 27.5289 15.9134 25.3892 15.9157 23.2642C15.9183 20.8759 15.8765 18.4825 15.9037 16.0948C15.9194 14.5323 15.9227 12.9698 15.9136 11.4073C15.9134 11.0313 15.9755 10.0508 15.9024 9.74198L15.8512 9.72691Z" fill="white"/>
<path d="M53.1756 28.9912V18.363H48.9964V16.3815H59.6966V18.363H55.5174V28.9912H53.1756ZM66.114 28.9912V27.0457L65.9879 26.6314V23.2268C65.9879 22.5662 65.7897 22.0558 65.3934 21.6956C64.9971 21.3233 64.3966 21.1371 63.592 21.1371C63.0516 21.1371 62.5172 21.2212 61.9888 21.3893C61.4724 21.5575 61.034 21.7916 60.6738 22.0919L59.7911 20.4526C60.3075 20.0563 60.92 19.7621 61.6285 19.5699C62.3491 19.3658 63.0936 19.2637 63.8622 19.2637C65.2553 19.2637 66.3301 19.5999 67.0867 20.2725C67.8553 20.933 68.2396 21.9598 68.2396 23.3529V28.9912H66.114ZM63.0876 29.1173C62.3671 29.1173 61.7366 28.9972 61.1962 28.757C60.6557 28.5048 60.2354 28.1626 59.9352 27.7302C59.647 27.2859 59.5029 26.7875 59.5029 26.2351C59.5029 25.6947 59.629 25.2083 59.8811 24.776C60.1454 24.3436 60.5717 24.0014 61.1601 23.7492C61.7486 23.497 62.5292 23.3709 63.5019 23.3709H66.2941V24.866H63.6641C62.8955 24.866 62.3791 24.9921 62.1149 25.2443C61.8507 25.4845 61.7186 25.7847 61.7186 26.145C61.7186 26.5533 61.8807 26.8776 62.2049 27.1178C62.5292 27.3579 62.9795 27.478 63.556 27.478C64.1084 27.478 64.6008 27.3519 65.0331 27.0997C65.4775 26.8476 65.7957 26.4753 65.9879 25.9829L66.3662 27.3339C66.15 27.8984 65.7597 28.3367 65.1953 28.6489C64.6428 28.9612 63.9403 29.1173 63.0876 29.1173ZM73.5613 29.1173C72.7567 29.1173 71.9821 29.0152 71.2375 28.8111C70.505 28.5949 69.9225 28.3367 69.4902 28.0365L70.3548 26.3251C70.7872 26.6014 71.3036 26.8295 71.904 27.0097C72.5045 27.1898 73.105 27.2799 73.7054 27.2799C74.414 27.2799 74.9244 27.1838 75.2366 26.9917C75.5609 26.7995 75.723 26.5413 75.723 26.2171C75.723 25.9529 75.6149 25.7547 75.3987 25.6226C75.1826 25.4785 74.9004 25.3704 74.5521 25.2984C74.2038 25.2263 73.8135 25.1602 73.3812 25.1002C72.9609 25.0402 72.5345 24.9621 72.1022 24.866C71.6819 24.7579 71.2976 24.6078 70.9493 24.4157C70.601 24.2115 70.3188 23.9413 70.1026 23.605C69.8865 23.2688 69.7784 22.8244 69.7784 22.272C69.7784 21.6595 69.9525 21.1311 70.3008 20.6868C70.6491 20.2304 71.1354 19.8822 71.7599 19.642C72.3964 19.3898 73.147 19.2637 74.0117 19.2637C74.6602 19.2637 75.3147 19.3357 75.9752 19.4799C76.6357 19.624 77.1821 19.8281 77.6145 20.0923L76.7498 21.8037C76.2934 21.5274 75.8311 21.3413 75.3627 21.2452C74.9064 21.1371 74.45 21.0831 73.9937 21.0831C73.3091 21.0831 72.7987 21.1852 72.4625 21.3893C72.1382 21.5935 71.9761 21.8517 71.9761 22.1639C71.9761 22.4522 72.0842 22.6683 72.3003 22.8124C72.5165 22.9565 72.7987 23.0706 73.147 23.1547C73.4953 23.2388 73.8796 23.3108 74.2999 23.3709C74.7322 23.4189 75.1586 23.497 75.5789 23.605C75.9992 23.7131 76.3835 23.8632 76.7318 24.0554C77.0921 24.2355 77.3803 24.4937 77.5964 24.83C77.8126 25.1663 77.9207 25.6046 77.9207 26.145C77.9207 26.7455 77.7406 27.2679 77.3803 27.7122C77.032 28.1566 76.5336 28.5048 75.8851 28.757C75.2366 28.9972 74.462 29.1173 73.5613 29.1173ZM82.9402 29.1173C81.8834 29.1173 81.0668 28.8471 80.4903 28.3067C79.9139 27.7543 79.6257 26.9436 79.6257 25.8748V17.2461H81.8774V25.8208C81.8774 26.2771 81.9915 26.6314 82.2197 26.8836C82.4599 27.1358 82.7901 27.2619 83.2105 27.2619C83.7148 27.2619 84.1352 27.1298 84.4714 26.8656L85.1019 28.4688C84.8377 28.685 84.5135 28.8471 84.1292 28.9552C83.7449 29.0633 83.3486 29.1173 82.9402 29.1173ZM78.0405 21.2452V19.4438H84.4534V21.2452H78.0405ZM90.6187 29.1173C89.5499 29.1173 88.6131 28.9071 87.8085 28.4868C87.0159 28.0545 86.3974 27.466 85.9531 26.7215C85.5207 25.9769 85.3046 25.1302 85.3046 24.1815C85.3046 23.2207 85.5147 22.3741 85.9351 21.6415C86.3674 20.897 86.9559 20.3145 87.7004 19.8942C88.457 19.4739 89.3157 19.2637 90.2764 19.2637C91.2131 19.2637 92.0478 19.4678 92.7804 19.8762C93.5129 20.2845 94.0894 20.8609 94.5097 21.6055C94.93 22.3501 95.1402 23.2268 95.1402 24.2355C95.1402 24.3316 95.1342 24.4397 95.1222 24.5598C95.1222 24.6799 95.1162 24.794 95.1042 24.902H87.088V23.4069H93.9152L93.0325 23.8753C93.0446 23.3228 92.9305 22.8365 92.6903 22.4161C92.4501 21.9958 92.1198 21.6655 91.6995 21.4254C91.2912 21.1852 90.8168 21.0651 90.2764 21.0651C89.724 21.0651 89.2376 21.1852 88.8173 21.4254C88.409 21.6655 88.0847 22.0018 87.8445 22.4341C87.6164 22.8545 87.5023 23.3529 87.5023 23.9293V24.2896C87.5023 24.866 87.6344 25.3764 87.8986 25.8208C88.1628 26.2651 88.5351 26.6074 89.0154 26.8476C89.4958 27.0877 90.0482 27.2078 90.6727 27.2078C91.2131 27.2078 91.6995 27.1238 92.1319 26.9556C92.5642 26.7875 92.9485 26.5233 93.2847 26.163L94.4917 27.5501C94.0593 28.0545 93.5129 28.4448 92.8524 28.721C92.2039 28.9852 91.4593 29.1173 90.6187 29.1173ZM101.086 29.1173C100.101 29.1173 99.2246 28.9071 98.456 28.4868C97.6874 28.0545 97.0809 27.466 96.6366 26.7215C96.1923 25.9769 95.9701 25.1302 95.9701 24.1815C95.9701 23.2207 96.1923 22.3741 96.6366 21.6415C97.0809 20.897 97.6874 20.3145 98.456 19.8942C99.2246 19.4739 100.101 19.2637 101.086 19.2637C102.083 19.2637 102.965 19.4739 103.734 19.8942C104.515 20.3145 105.121 20.8909 105.553 21.6235C105.998 22.3561 106.22 23.2087 106.22 24.1815C106.22 25.1302 105.998 25.9769 105.553 26.7215C105.121 27.466 104.515 28.0545 103.734 28.4868C102.965 28.9071 102.083 29.1173 101.086 29.1173ZM101.086 27.1898C101.638 27.1898 102.131 27.0697 102.563 26.8295C102.996 26.5894 103.332 26.2411 103.572 25.7847C103.824 25.3284 103.95 24.794 103.95 24.1815C103.95 23.557 103.824 23.0226 103.572 22.5783C103.332 22.1219 102.996 21.7736 102.563 21.5334C102.131 21.2933 101.644 21.1732 101.104 21.1732C100.552 21.1732 100.059 21.2933 99.6269 21.5334C99.2066 21.7736 98.8703 22.1219 98.6181 22.5783C98.3659 23.0226 98.2398 23.557 98.2398 24.1815C98.2398 24.794 98.3659 25.3284 98.6181 25.7847C98.8703 26.2411 99.2066 26.5894 99.6269 26.8295C100.059 27.0697 100.546 27.1898 101.086 27.1898ZM107.833 28.9912V19.3718H109.976V22.0198L109.724 21.2452C110.013 20.5967 110.463 20.1043 111.075 19.7681C111.7 19.4318 112.474 19.2637 113.399 19.2637V21.4073C113.303 21.3833 113.213 21.3713 113.129 21.3713C113.045 21.3593 112.961 21.3533 112.877 21.3533C112.024 21.3533 111.346 21.6055 110.841 22.1099C110.337 22.6023 110.085 23.3408 110.085 24.3256V28.9912H107.833ZM120.009 28.9912V27.0457L119.883 26.6314V23.2268C119.883 22.5662 119.685 22.0558 119.289 21.6956C118.893 21.3233 118.292 21.1371 117.487 21.1371C116.947 21.1371 116.413 21.2212 115.884 21.3893C115.368 21.5575 114.929 21.7916 114.569 22.0919L113.687 20.4526C114.203 20.0563 114.815 19.7621 115.524 19.5699C116.244 19.3658 116.989 19.2637 117.758 19.2637C119.151 19.2637 120.226 19.5999 120.982 20.2725C121.751 20.933 122.135 21.9598 122.135 23.3529V28.9912H120.009ZM116.983 29.1173C116.262 29.1173 115.632 28.9972 115.092 28.757C114.551 28.5048 114.131 28.1626 113.831 27.7302C113.542 27.2859 113.398 26.7875 113.398 26.2351C113.398 25.6947 113.524 25.2083 113.777 24.776C114.041 24.3436 114.467 24.0014 115.056 23.7492C115.644 23.497 116.425 23.3709 117.397 23.3709H120.19V24.866H117.559C116.791 24.866 116.275 24.9921 116.01 25.2443C115.746 25.4845 115.614 25.7847 115.614 26.145C115.614 26.5533 115.776 26.8776 116.1 27.1178C116.425 27.3579 116.875 27.478 117.451 27.478C118.004 27.478 118.496 27.3519 118.929 27.0997C119.373 26.8476 119.691 26.4753 119.883 25.9829L120.262 27.3339C120.045 27.8984 119.655 28.3367 119.091 28.6489C118.538 28.9612 117.836 29.1173 116.983 29.1173ZM136.626 19.2637C137.394 19.2637 138.073 19.4138 138.661 19.714C139.262 20.0143 139.73 20.4766 140.066 21.1011C140.403 21.7136 140.571 22.5062 140.571 23.4789V28.9912H138.319V23.7672C138.319 22.9145 138.133 22.278 137.761 21.8577C137.388 21.4374 136.854 21.2272 136.157 21.2272C135.665 21.2272 135.227 21.3353 134.842 21.5515C134.47 21.7676 134.176 22.0859 133.96 22.5062C133.756 22.9265 133.654 23.4609 133.654 24.1094V28.9912H131.402V23.7672C131.402 22.9145 131.216 22.278 130.843 21.8577C130.471 21.4374 129.937 21.2272 129.24 21.2272C128.748 21.2272 128.309 21.3353 127.925 21.5515C127.553 21.7676 127.259 22.0859 127.042 22.5062C126.838 22.9265 126.736 23.4609 126.736 24.1094V28.9912H124.484V19.3718H126.628V21.9298L126.25 21.1732C126.574 20.5487 127.042 20.0743 127.655 19.7501C128.279 19.4258 128.988 19.2637 129.781 19.2637C130.681 19.2637 131.462 19.4859 132.122 19.9302C132.795 20.3745 133.239 21.0471 133.455 21.9478L132.573 21.6415C132.885 20.921 133.401 20.3445 134.122 19.9122C134.842 19.4799 135.677 19.2637 136.626 19.2637ZM148.834 28.9912V27.0457L148.708 26.6314V23.2268C148.708 22.5662 148.51 22.0558 148.114 21.6956C147.718 21.3233 147.117 21.1371 146.313 21.1371C145.772 21.1371 145.238 21.2212 144.709 21.3893C144.193 21.5575 143.755 21.7916 143.394 22.0919L142.512 20.4526C143.028 20.0563 143.64 19.7621 144.349 19.5699C145.07 19.3658 145.814 19.2637 146.583 19.2637C147.976 19.2637 149.051 19.5999 149.807 20.2725C150.576 20.933 150.96 21.9598 150.96 23.3529V28.9912H148.834ZM145.808 29.1173C145.088 29.1173 144.457 28.9972 143.917 28.757C143.376 28.5048 142.956 28.1626 142.656 27.7302C142.367 27.2859 142.223 26.7875 142.223 26.2351C142.223 25.6947 142.349 25.2083 142.602 24.776C142.866 24.3436 143.292 24.0014 143.881 23.7492C144.469 23.497 145.25 23.3709 146.222 23.3709H149.015V24.866H146.385C145.616 24.866 145.1 24.9921 144.835 25.2443C144.571 25.4845 144.439 25.7847 144.439 26.145C144.439 26.5533 144.601 26.8776 144.925 27.1178C145.25 27.3579 145.7 27.478 146.277 27.478C146.829 27.478 147.321 27.3519 147.754 27.0997C148.198 26.8476 148.516 26.4753 148.708 25.9829L149.087 27.3339C148.871 27.8984 148.48 28.3367 147.916 28.6489C147.363 28.9612 146.661 29.1173 145.808 29.1173Z" fill="white"/>
</svg>
