<svg xmlns="http://www.w3.org/2000/svg" aria-hidden="true" style="position:absolute;width:0;height:0;overflow:hidden">
  <defs>
    <symbol id="filter-icon" viewBox="0 0 24 24">
      <path d="M6.68117 5.625L17.3188 5.62501C18.1092 5.62501 18.75 6.26576 18.75 7.05617C18.75 7.42149 18.6103 7.77298 18.3595 8.03863L13.5577 13.125L13.5577 16.6462C13.5577 17.794 12.3584 18.5476 11.3242 18.0496C10.7851 17.79 10.4423 17.2445 10.4423 16.6462L10.4423 13.125L5.64049 8.03863C5.3897 7.77298 5.25 7.42149 5.25 7.05617C5.25 6.26576 5.89076 5.625 6.68117 5.625Z"/>
    </symbol>
    <symbol id="filter-close" viewBox="0 0 24 24">
    <path d="M5.92853 9.11019L10.1552 13.4272L10.1552 17.1975C10.1552 17.6709 10.3787 18.1166 10.7581 18.3997L10.8405 18.4612C11.8298 19.1995 13.2376 18.4934 13.2376 17.259V16.4423M8.05353 5.25L16.8938 5.28912C17.7129 5.29274 18.375 5.95777 18.375 6.77688C18.375 7.11895 18.2571 7.45056 18.0412 7.71589L14.7321 11.7826M5.625 5.84384L17.1608 16.5336"/>
    </symbol>
    <symbol id="close-icon" viewBox="0 0 32 32">
      <path stroke-width="1.333" d="M25.5 16c0 5.247-4.253 9.5-9.5 9.5S6.5 21.247 6.5 16s4.253-9.5 9.5-9.5 9.5 4.253 9.5 9.5z"/>
      <path stroke-linecap="round" stroke-width="1.333" d="M19.699 12.346 16 16.045m0 .001-3.699 3.699M16 16.046l3.699 3.699M16 16.046l-3.699-3.699"/>
    </symbol>
    <symbol id="exit-icon" viewBox="0 0 31 32">
      <path stroke-linecap="round" stroke-linejoin="round" stroke-width="1.28" d="M12.554 6.88H9.046A2.806 2.806 0 0 0 6.24 9.686v12.628a2.806 2.806 0 0 0 2.806 2.806h3.508M11.04 16h14.031m0 0-4.209 4.209M25.071 16l-4.209-4.209"/>
    </symbol>
    <symbol id="logo-icon" viewBox="0 0 34 32">
      <path d="M14.649 5.99c.344-.036.698.001 1.032.084.989.247 1.659.854 2.169 1.703a3.654 3.654 0 0 1 1.211.074c.846.21 1.576.737 2.034 1.469a3.132 3.132 0 0 1 .379 2.44c-.283 1.07-.962 1.626-1.887 2.16.026.657.016 1.316.017 1.974.001.415.028.848-.013 1.26a1.056 1.056 0 0 1-.142.469c-.133.095-.269.124-.43.143-.423.051-.883.016-1.31.015l-2.516-.009c-.895.066-1.843.004-2.743.004-.599.001-1.274.071-1.866.004-.211-.024-.301-.163-.417-.318-.075-1.179-.011-2.397-.011-3.58-.493-.252-.912-.561-1.256-.996a3.076 3.076 0 0 1-.639-2.31 3.325 3.325 0 0 1 1.308-2.178 3.225 3.225 0 0 1 2.397-.611c.12-.209.241-.418.39-.609.576-.734 1.379-1.077 2.292-1.192zm.048 1.447c-.562.11-1.045.311-1.384.797-.19.272-.363 1.053-.599 1.173-.313.037-.64-.107-.944-.173-.609-.132-1.297.109-1.674.598-.31.402-.456.957-.373 1.456.075.452.351.83.729 1.089.412.282.872.339 1.157.782.052 1.027.014 2.072.016 3.102 1.199-.009 2.398-.012 3.597-.008l2.929-.006c0-.522-.113-3.117.131-3.372.115-.119.377-.192.532-.252.698-.271 1.208-.741 1.272-1.515a1.753 1.753 0 0 0-.468-1.351 1.69 1.69 0 0 0-1.192-.559c-.413-.024-1.263.365-1.522.075-.126-.141-.177-.384-.241-.561-.264-.73-.816-1.154-1.593-1.255a2.448 2.448 0 0 0-.373-.02zM28.482 1.464c.26-.019.572-.015.777.172.191.174.2.453.136.686-.154.563-.648 1.238-.946 1.75-.476.819-.92 1.662-1.382 2.49-.286.513-.632 1.038-.86 1.574a1.23 1.23 0 0 0-.12.536.506.506 0 0 0 .189.391c.177.151.411.268.651.237a.588.588 0 0 0 .387-.228c.339-.421.54-1.008.787-1.484l1.707-3.295c.202-.394.38-.877.663-1.218.15-.18.289-.266.528-.286a.704.704 0 0 1 .519.155c.173.145.254.38.219.6-.066.423-.443.937-.644 1.323l-1.55 3.039c-.276.548-.601 1.108-.823 1.679-.052.133-.103.281-.084.426.023.169.148.317.285.413.153.107.361.178.549.137.216-.048.368-.204.489-.377.276-.395.458-.913.661-1.349l1.323-2.804c.249-.532.476-1.158.809-1.641.12-.174.248-.313.468-.346.223-.034.448.059.617.199.14.116.245.252.251.438.016.477-.859 2.132-1.097 2.664l-.938 2.095c-.46 1.033-.853 2.069-1.63 2.924-.764.842-1.634 1.199-2.684 1.575-.221.079-.561.157-.749.291-.371.265-.63.756-.848 1.143-.167.297-.38.62-.485.945-.154.479-.052 1.943-.052 2.521l-.002 7.462.004 2.282c.001.447.028.914-.022 1.358a.777.777 0 0 1-.203.461c-.363.353-1.703.228-2.217.225l-3.504-.005a14.9 14.9 0 0 1 .715-1.571c.455-.047.922-.027 1.379-.027l2.26.001v-9.752c-.293.693-.665 1.372-1.002 2.046a386.418 386.418 0 0 0-1.779 3.592 315.513 315.513 0 0 1-2.158 4.365c-.306.606-.577 1.244-.924 1.827-.141.236-.311.45-.547.602a1.48 1.48 0 0 1-1.082.203 1.348 1.348 0 0 1-.88-.616 1.263 1.263 0 0 1-.144-1.058c.18-.599.559-1.177.859-1.725l1.425-2.608c1.726-3.16 3.466-6.318 5.135-9.506.394-.752 1.285-2.176 1.499-2.884.234-.771-.257-1.693-.401-2.451a4.489 4.489 0 0 1 .373-2.842c.228-.449.503-.879.757-1.314l1.316-2.272 1.062-1.842c.21-.363.409-.754.663-1.089a.918.918 0 0 1 .29-.234z"/>
      <path d="M4.59.099C5.808.035 7.054.09 8.276.091L21.631.09c1.03 0 2.101-.059 3.128.006.21.013.449.072.608.217.139.127.199.351.226.529.054.361.022.757.021 1.123l-.009 2.076c-.509.818-1.065 1.612-1.6 2.414.047-.538.014-1.098.014-1.639V1.773c-6.092.005-12.191.061-18.282-.004-.062 2.492-.005 5-.005 7.493l.003 13.783 10.753-.008c.471-.001.971-.034 1.438.025-.173.536-.502 1.075-.758 1.58l-11.011-.019c-.581.001-1.186-.026-1.761.058-.495.07-.962.271-1.349.583-.474.378-.819.926-.868 1.534-.044.535.169 1.051.516 1.455.326.379.828.665 1.323.759.724.137 1.799.04 2.561.042l5.178.005c.963.001 1.943-.04 2.903.03-.17.498-.326 1.037-.423 1.554-.868-.077-1.793-.014-2.669-.014l-5.186-.001c-.902.002-1.93.106-2.81-.083-.618-.132-1.199-.454-1.682-.851-.78-.64-1.271-1.627-1.35-2.619-.045-.555-.012-1.13-.01-1.687l.001-2.702v-9.344L.529 6.863C.528 6.03.451 4.564.564 3.778c.106-.78.441-1.513.963-2.108A4.535 4.535 0 0 1 4.59.099zm-.482 1.743c-.858.348-1.487.784-1.853 1.654-.126.3-.16.67-.171.994-.054 1.586-.004 3.191-.003 4.778l.001 9.166.001 4.064c0 .46-.086 1.088.016 1.527l.037.013.057-.037c.647-.478 1.195-.739 1.989-.905-.062-2.265-.008-4.548-.005-6.814.003-2.548-.042-5.1-.013-7.647.017-1.667.02-3.333.011-5 0-.401.066-1.447-.012-1.776l-.055-.016z"/>
    </symbol>
    <symbol id="burger-icon" viewBox="0 0 31 32">
      <path stroke-linecap="round" stroke-width="1.293" d="M7.273 9.535h16.485M7.273 21.172h16.485M7.273 15.354h16.485"/>
    </symbol>
    <symbol id="save-icon" viewBox="0 0 32 32">
      <path stroke-linecap="round" stroke-linejoin="round" stroke-width="1.333" d="M15.996 4.667c1.685 0 3.231.161 4.457.348 1.552.236 2.768 1.299 3.115 2.785.418 1.794.828 4.522.758 8.187-.078 4.044-.668 6.962-1.237 8.866-.154.515-.51.78-.913.848-.421.071-.941-.069-1.363-.49-.769-.766-1.65-1.593-2.462-2.232a9.094 9.094 0 0 0-1.184-.811c-.353-.196-.767-.374-1.171-.374-.397 0-.825.175-1.199.367-.399.205-.84.486-1.292.805-.905.639-1.907 1.466-2.789 2.233-.466.405-1.014.5-1.447.383-.417-.114-.769-.434-.878-.992-.372-1.917-.725-4.749-.725-8.59 0-3.831.395-6.534.788-8.273.326-1.442 1.502-2.468 3.014-2.702a29.972 29.972 0 0 1 4.527-.358z"/>
    </symbol>
    <symbol id="time-icon" viewBox="0 0 32 32">
      <path stroke-linecap="round" stroke-linejoin="round" stroke-width=".667" d="M16 10.154v6.577l4.385 3.654M25.5 16c0 5.247-4.253 9.5-9.5 9.5S6.5 21.247 6.5 16s4.253-9.5 9.5-9.5 9.5 4.253 9.5 9.5z"/>
    </symbol>
    <symbol id="close-x-icon" viewBox="0 0 32 32">
      <path stroke-linecap="round" stroke-linejoin="round" stroke-width="1.333" d="m7 7 9 9m0 0-9 9m9-9 9 9m-9-9 9-9"/>
    </symbol>
    <symbol id="icon-eye" viewBox="0 0 24 24">
      <path d="M11.7404 8.93179C8.15584 8.93179 5.25 12.3977 5.25 13.2784C5.25 14.1591 8.15584 17.625 11.7404 17.625C15.3249 17.625 18.2308 14.1591 18.2308 13.2784C18.2308 12.3977 15.3249 8.93179 11.7404 8.93179ZM11.7404 8.93179C10.1632 8.93179 8.88464 10.191 8.88464 11.7443C8.88464 13.2976 10.1632 14.5568 11.7404 14.5568C13.3176 14.5568 14.5962 13.2976 14.5962 11.7443C14.5962 10.191 13.3176 8.93179 11.7404 8.93179ZM18.75 8.93182C16.7731 7.30753 14.4652 6.375 12 6.375C9.53482 6.375 7.22688 7.30753 5.25 8.93182" stroke="black" stroke-linecap="round"/>
    </symbol>
    <symbol id="icon-eye-off" viewBox="0 0 24 24">
      <path d="M14.4107 16.9874C13.5963 17.3656 12.6923 17.6118 11.7405 17.6118C8.15598 17.6118 5.25017 14.1207 5.25017 13.2337C5.25017 12.7308 6.18382 11.3913 7.6455 10.3253M17.452 14.6368C17.9487 14.0392 18.2308 13.51 18.2308 13.2337C18.2308 12.3466 15.325 8.85553 11.7405 8.85553C13.3177 8.85553 14.5962 10.1239 14.5962 11.6884M11.7405 14.5213C10.1633 14.5213 8.88472 13.253 8.88472 11.6884M18.75 8.85561C16.7732 7.21954 14.4653 6.28024 12.0001 6.28024C11.1116 6.28024 10.2435 6.40227 9.40397 6.63496M5.25017 8.85561C5.43341 8.70396 5.6195 8.55829 5.8083 8.4188M5.25 5.25004L17.7856 17.9062" stroke="black" stroke-linecap="round"/>
    </symbol>
  </defs>
</svg>